<?xml version="1.0" encoding="UTF-8"?>
<svg version="1.1" xmlns="http://www.w3.org/2000/svg" width="500" height="500">
<path d="M0 0 C165 0 330 0 500 0 C500 165 500 330 500 500 C335 500 170 500 0 500 C0 335 0 170 0 0 Z " fill="#CB5400" transform="translate(0,0)"/>
<path d="M0 0 C8.67632247 7.38855661 14.75948397 16.85594689 16.44921875 28.30859375 C16.56194813 29.79411652 16.67279446 31.27978409 16.78125 32.765625 C17.50517895 37.71247282 20.86029973 40.69057515 24.6171875 43.59765625 C29.00875113 46.83315184 33.57875756 48.92383582 38.625 50.9375 C39.43646484 51.27523437 40.24792969 51.61296875 41.08398438 51.9609375 C48.83313669 55.13815249 55.80959213 56.90848683 64.1953125 57.24609375 C68.8843362 57.96797342 71.39902395 59.88056966 74.375 63.5 C76.24535914 67.03290059 76.64746307 68.75989081 76.0625 72.6875 C74.66390147 76.02859649 73.52960321 77.39801942 70.44290161 79.31095886 C66.54984331 80.89626011 63.22963057 81.08692081 59.10107422 81.0246582 C57.93896927 81.02548904 57.93896927 81.02548904 56.75338745 81.02633667 C55.08048087 81.02607782 53.40756489 81.01924443 51.73470688 81.00649452 C49.08648969 80.98806765 46.43906073 80.99079957 43.790802 80.9995575 C36.26519467 81.02133991 28.73989399 81.01034033 21.21435547 80.97241211 C16.60361412 80.95064831 11.99365143 80.95781484 7.38293839 80.9828701 C5.62784632 80.98646645 3.87269358 80.9787856 2.11770248 80.95961952 C-0.3340316 80.93335075 -2.78311656 80.9436855 -5.23486328 80.9621582 C-5.95911499 80.94522415 -6.6833667 80.9282901 -7.42956543 80.9108429 C-9.72120062 80.8887281 -9.72120062 80.8887281 -12.9375 81.6875 C-16.94555389 86.40716835 -17.63587455 89.8081393 -17.375 95.81640625 C-16.15861961 103.79890258 -11.9069875 109.67452373 -5.78515625 114.75390625 C-1.08302197 117.94671348 3.99603969 120.30144683 9.11328125 122.75 C29.1228262 132.39685865 40.21252624 148.93029805 49.0625 168.6875 C49.48402344 169.61949219 49.90554688 170.55148437 50.33984375 171.51171875 C59.18164509 193.29925187 58.87631026 220.4584079 49.875 241.9375 C46.87661207 248.70664898 43.02463781 254.1805 38.0625 259.6875 C37.27746094 260.6671875 36.49242187 261.646875 35.68359375 262.65625 C24.39681393 276.21838293 6.41309002 283.48674024 -9.9375 288.6875 C-11.04351562 289.04585938 -12.14953125 289.40421875 -13.2890625 289.7734375 C-28.94224289 294.55935242 -45.39538905 296.80540916 -61.74609375 296.890625 C-62.65803497 296.89763931 -63.5699762 296.90465363 -64.509552 296.91188049 C-67.46475187 296.92936919 -70.41975014 296.93574076 -73.375 296.9375 C-74.39238251 296.93817474 -75.40976501 296.93884949 -76.45797729 296.93954468 C-108.89802929 296.90557072 -142.14369091 294.81576087 -173.45703125 285.69921875 C-176.01454753 284.95578809 -178.55185279 284.27548278 -181.13671875 283.64453125 C-206.27496003 277.45944658 -229.85140397 268.12911291 -252.64111328 255.96533203 C-263.46490404 250.25239446 -274.68748757 245.48810009 -285.9375 240.6875 C-288.00666861 239.79463735 -290.07567992 238.90141006 -292.14453125 238.0078125 C-316.34724477 227.60770748 -340.78161521 217.55765736 -365.9375 209.6875 C-365.9375 209.0275 -365.9375 208.3675 -365.9375 207.6875 C-364.70596191 207.23834229 -363.47442383 206.78918457 -362.20556641 206.32641602 C-357.64669889 204.66338521 -353.08840002 202.99880064 -348.53027344 201.33374023 C-346.55549405 200.61261111 -344.58055965 199.89190633 -342.60546875 199.17163086 C-339.77042665 198.13766596 -336.93594122 197.10218803 -334.1015625 196.06640625 C-333.21506012 195.74346085 -332.32855774 195.42051544 -331.41519165 195.08778381 C-330.59449188 194.78754807 -329.77379211 194.48731232 -328.92822266 194.17797852 C-328.20430328 193.91372574 -327.48038391 193.64947296 -326.73452759 193.37721252 C-324.87650683 192.69743047 -324.87650683 192.69743047 -322.9375 191.6875 C-331.8475 185.7475 -340.7575 179.8075 -349.9375 173.6875 C-347.74943173 171.49943173 -346.89063985 171.25429346 -343.96484375 170.57421875 C-343.1567627 170.38085938 -342.34868164 170.1875 -341.51611328 169.98828125 C-340.6445459 169.78589844 -339.77297852 169.58351563 -338.875 169.375 C-332.37579478 167.81546923 -325.95102338 166.15123309 -319.5625 164.1875 C-310.55423122 161.46205151 -301.41751208 159.4352952 -292.22949219 157.41601562 C-288.52780699 156.59683522 -284.82997002 155.76119093 -281.1328125 154.921875 C-280.45620575 154.76838593 -279.779599 154.61489685 -279.08248901 154.45675659 C-277.71011662 154.14541696 -276.3377513 153.83404611 -274.96539307 153.52264404 C-245.21006407 146.77093824 -245.21006407 146.77093824 -232.5 144.6875 C-231.47487305 144.51943848 -230.44974609 144.35137695 -229.39355469 144.17822266 C-206.66580945 140.51099683 -183.88988008 137.95598811 -160.8515625 137.484375 C-159.8341523 137.46345291 -159.8341523 137.46345291 -158.79618835 137.44210815 C-158.11699844 137.42818024 -157.43780853 137.41425232 -156.73803711 137.39990234 C-118.85921376 136.67684582 -118.85921376 136.67684582 -86.03515625 119.85546875 C-81.57149401 114.86666978 -80.42271834 110.7249778 -80.44921875 104.046875 C-81.15891362 99.1641743 -83.13528447 95.11758195 -85.22314453 90.68310547 C-94.08528803 71.76488455 -95.30538161 46.08620712 -89.2578125 26.125 C-84.06693298 12.61028408 -76.05607316 0.53098444 -62.9375 -6.3125 C-59.98501532 -7.54901068 -57.02256064 -8.4701055 -53.9375 -9.3125 C-52.74125 -9.704375 -51.545 -10.09625 -50.3125 -10.5 C-33.47662074 -14.49097536 -13.84207779 -10.12260791 0 0 Z " fill="#000000" transform="translate(393.9375,100.3125)"/>
</svg>
